# AST/ASF file generated using VICON BodyLanguage
# -----------------------------------------------
:version 1.10
:name VICON
:units
  mass 1.0
  length 0.45
  angle deg
:documentation
   .ast/.asf automatically generated from VICON data using
   VICON BodyBuilder and BodyLanguage model FoxedUp or BRILLIANT.MOD
:root
   order TX TY TZ RX RY RZ
   axis XYZ
   position 0 0 0  
   orientation 0 0 0 
:bonedata
  begin
     id 1 
     name lhipjoint
     direction 0.623529 -0.717805 0.309788 
     length 2.23224 
     axis 0 0 0  XYZ
  end
  begin
     id 2 
     name lfemur
     direction 0.34202 -0.939693 0  
     length 7.11402  
     axis 0 0 20  XYZ
    dof rx ry rz
    limits (-160.0 20.0)
           (-70.0 70.0)
           (-60.0 70.0)
  end
  begin
     id 3 
     name ltibia
     direction 0.34202 -0.939693 0   
     length 6.78496   
     axis 0 0 20   XYZ
    dof rx
    limits (-10.0 170.0)
  end
  begin
     id 4 
     name lfoot
     direction 0.125078 -0.343648 0.930732   
     length 1.84054   
     axis -90 7.62852e-016 20   XYZ
    dof rx rz
    limits (-45.0 90.0)
           (-70.0 20.0)
  end
  begin
     id 5 
     name ltoes
     direction 1.53565e-011 -4.21893e-011 1   
     length 0.916474   
     axis -90 7.62852e-016 20   XYZ
    dof rx
    limits (-90.0 20.0)
  end
  begin
     id 6 
     name rhipjoint
     direction -0.564688 -0.757748 0.327026   
     length 2.11457  
     axis 0 0 0  XYZ 
  end
  begin
     id 7 
     name rfemur
     direction -0.34202 -0.939693 0   
     length 7.14609   
     axis 0 0 -20   XYZ
    dof rx ry rz
    limits (-160.0 20.0)
           (-70.0 70.0)
           (-70.0 60.0)
  end
  begin
     id 8 
     name rtibia
     direction -0.34202 -0.939693 0   
     length 6.78101   
     axis 0 0 -20   XYZ
    dof rx
    limits (-10.0 170.0)
 end
 begin
     id 9 
     name rfoot
     direction -0.0992671 -0.272734 0.956955   
     length 1.96168  
     axis -90 -7.62852e-016 -20   XYZ
    dof rx rz
    limits (-45.0 90.0)
           (-20.0 70.0)
  end
  begin
     id 10 
     name rtoes
     direction -1.5356e-011 -4.21891e-011 1   
     length 0.982933   
     axis -90 -7.62852e-016 -20   XYZ
    dof rx
    limits (-90.0 20.0)
  end
  begin
     id 11 
     name lowerback
     direction -0.00596953 0.998668 0.0512524   
     length 1.87557   
     axis 0 0 0   XYZ
    dof rx ry rz
    limits (-20.0 45.0)
           (-30.0 30.0)
           (-30.0 30.0)
  end
  begin
     id 12 
     name upperback
     direction 0.00584879 0.999652 0.0257308   
     length 1.87883   
     axis 0 0 0   XYZ
    dof rx ry rz
    limits (-20.0 45.0)
           (-30.0 30.0)
           (-30.0 30.0)
  end
  begin
     id 13 
     name thorax
     direction 0.010104 0.999947 0.00178881   
     length 1.87779   
     axis 0 0 0   XYZ
    dof rx ry rz
    limits (-20.0 45.0)
           (-30.0 30.0)
           (-30.0 30.0)
  end
  begin
     id 14 
     name lowerneck
     direction 0.0120771 0.995934 -0.0892773   
     length 1.40897   
     axis 0 0 0   XYZ
    dof rx ry rz
    limits (-20.0 45.0)
           (-30.0 30.0)
           (-30.0 30.0)
  end
  begin
     id 15 
     name upperneck
     direction -0.030568 0.999465 -0.0116366   
     length 1.38661   
     axis 0 0 0   XYZ
    dof rx ry rz
    limits (-20.0 45.0)
           (-30.0 30.0)
           (-30.0 30.0)
  end
  begin
     id 16
     name head
     direction -0.0170715 0.999854 -0.00104426  
     length 1.47052  
     axis 0 0 0   XYZ
    dof rx ry rz
    limits (-20.0 45.0)
           (-30.0 30.0)
           (-30.0 30.0)
  end
  begin
     id 17 
     name lclavicle
     direction 0.977763 0.206143 0.038532  
     length 3.02424  
     axis 0 0 0   XYZ
    dof ry rz
    limits (-20.0 10.0)
           (0.0 20.0)
  end
  begin
     id 18 
     name lhumerus
     direction 1 -4.48965e-011 -2.62654e-027   
     length 4.68382   
     axis 180 -30 -90   XYZ
    dof rx ry rz
    limits (-60.0 90.0)
           (-90.0 90.0)
           (-90.0 90.0)
  end
  begin
     id 19
     name lradius
     direction 1 -4.48973e-011 -1.54954e-027   
     length 2.98124   
     axis 180 -30 -90   XYZ
    dof rx
    limits (-10.0 170.0)
  end
  begin
     id 20
     name lwrist
     direction 1 -4.48959e-011 7.20928e-028   
     length 1.49062   
     axis -5.52449e-016 90 90   XYZ
    dof ry
    limits (-180.0 0.0)
 end
  begin
     id 21 
     name lhand
     direction 1 -4.48971e-011 1.44186e-027   
     length 0.707595   
     axis -9.20027e-016 90 90   XYZ
    dof rx rz
    limits (-90.0 90.0)
           (-45.0 45.0)
  end
  begin
     id 22 
     name lfingers
     direction 1 -4.48985e-011 2.88371e-027   
     length 0.570481   
     axis -1.84005e-015 90 90   XYZ
    dof rx
    limits (0.0 90.0)
  end
  begin
     id 23
     name lthumb
     direction 0.707107 -6.34929e-011 0.707107   
     length 0.819101   
     axis -90 45 2.85299e-015   XYZ
    dof rx rz
    limits (-45.0 45.0)
           (-45.0 45.0)
  end
  begin
     id 24 
     name rclavicle
     direction -0.958661 0.284411 -0.00895327   
     length 3.11921  
     axis 0 0 0   XYZ 
    dof ry rz
    limits (-10.0 20.0)
           (-20.0 0.0)
  end
  begin
     id 25 
     name rhumerus
     direction -1 -4.48963e-011 -4.22193e-027  
     length 4.75876   
     axis 180 30 90   XYZ
    dof rx ry rz
    limits (-90.0 60.0)
           (-90.0 90.0)
           (-90.0 90.0)
  end
  begin
     id 26 
     name rradius
     direction -1 -4.48968e-011 -1.07616e-027   
     length 2.93293   
     axis 180 30 90   XYZ
    dof rx
    limits (-10.0 170.0)
  end
  begin
     id 27 
     name rwrist
     direction -1 -4.48965e-011 7.20928e-028   
     length 1.46647   
     axis -5.52449e-016 -90 -90   XYZ
    dof ry
    limits (-180.0 0.0)
  end
  begin
     id 28
     name rhand
     direction -1 -4.48971e-011 1.44186e-027   
     length 0.831748   
     axis -9.20027e-016 -90 -90   XYZ
    dof rx rz
    limits (-90.0 90.0)
           (-45.0 45.0)
  end
  begin
     id 29
     name rfingers
     direction -1 -4.48961e-011 2.88371e-027   
     length 0.670577   
     axis -1.84005e-015 -90 -90   XYZ
    dof rx
    limits (0.0 90.0)
  end
  begin
     id 30
     name rthumb
     direction -0.707107 -6.34929e-011 0.707107   
     length 0.962818   
     axis -90 -45 -2.85299e-015   XYZ
    dof rx rz
    limits (-45.0 45.0)
           (-45.0 45.0)
  end
:hierarchy
  begin
    root lhipjoint rhipjoint lowerback
    lhipjoint lfemur
    lfemur ltibia
    ltibia lfoot
    lfoot ltoes
    rhipjoint rfemur
    rfemur rtibia
    rtibia rfoot
    rfoot rtoes
    lowerback upperback
    upperback thorax
    thorax lowerneck lclavicle rclavicle
    lowerneck upperneck
    upperneck head
    lclavicle lhumerus
    lhumerus lradius
    lradius lwrist
    lwrist lhand lthumb
    lhand lfingers
    rclavicle rhumerus
    rhumerus rradius
    rradius rwrist
    rwrist rhand rthumb
    rhand rfingers
  end

#!OML:ASF E:\id_vita\Project 1\Capture day 1\Session 1\Female.ASF
:FULLY-SPECIFIED
:DEGREES
130
root -18.5378 15.8548 -0.961797 -157.756 -74.3659 210.345
lowerback 9.73221 2.10304 -3.34254
upperback 3.30245 2.34117 0.217774
thorax -2.16409 1.10062 1.83637
lowerneck -6.03098 6.88845 3.22656
upperneck -12.9712 7.62577 -14.9233
head -2.06527 3.94348 -5.01698
rclavicle 1.43125e-014 6.0033e-014
rhumerus 15.5321 24.8699 -94.5032
rradius 26.8185
rwrist 0.279451
rhand -15.8856 5.27103
rfingers 7.12502
rthumb 10.3105 -24.4562
lclavicle 1.43125e-014 6.0033e-014
lhumerus 28.7384 16.4518 114.678
lradius 11.6902
lwrist -42.8488
lhand -15.5749 32.6936
lfingers 7.12502
lthumb 10.6102 62.4057
rfemur -70.9454 4.74946 24.873
rtibia 31.5126
rfoot -6.31378 -7.97305
rtoes -9.31396
lfemur -83.0997 14.3542 -17.3872
ltibia 54.6551
lfoot -8.93915 -2.20012
ltoes -2.57168
131
root -18.5379 15.8213 -0.936793 -157.08 -73.9971 210.325
lowerback 9.96246 2.20118 -3.63448
upperback 3.3757 2.42665 0.179159
thorax -2.22936 1.13962 1.94394
lowerneck -6.20315 6.966 3.44993
upperneck -13.3842 7.63451 -15.3069
head -2.12646 3.94779 -5.17708
rclavicle 2.38542e-015 -8.74653e-015
rhumerus 16.5917 26.016 -93.6538
rradius 27.2947
rwrist -0.877332
rhand -16.3694 4.98861
rfingers 7.12502
rthumb 9.84381 -24.7613
lclavicle 2.38542e-015 -8.74653e-015
lhumerus 29.8888 15.9265 114.846
lradius 11.8314
lwrist -42.5823
lhand -15.0495 33.1384
lfingers 7.12502
lthumb 11.117 62.8239
rfemur -72.0689 4.47744 25.6857
rtibia 32.1308
rfoot -6.66617 -7.39055
rtoes -10.6205
lfemur -84.1102 14.5494 -17.6148
ltibia 55.2739
lfoot -10.3736 -1.37556
ltoes -8.27976
132
root -18.5329 15.7779 -0.917486 -156.788 -73.752 210.804
lowerback 10.175 2.22191 -3.76987
upperback 3.36419 2.42713 0.119862
thorax -2.36084 1.14095 1.95129
lowerneck -6.4804 7.09086 3.64572
upperneck -13.5834 7.75909 -15.4655
head -2.11022 3.99765 -5.25088
rclavicle 3.33958e-014 -1.70955e-014
rhumerus 17.622 26.8476 -93.1967
rradius 27.602
rwrist -1.56137
rhand -16.6574 4.7149
rfingers 7.12502
rthumb 9.56589 -25.0479
lclavicle 3.33958e-014 -1.70955e-014
lhumerus 30.843 14.8197 114.291
lradius 12.0371
lwrist -41.4619
lhand -14.7705 33.4777
lfingers 7.12502
lthumb 11.386 63.1486
rfemur -73.32 4.53153 26.0845
rtibia 32.8563
rfoot -6.7777 -6.97079
rtoes -12.6088
lfemur -85.4054 14.8678 -17.892
ltibia 55.9798
lfoot -10.1648 -1.65906
ltoes -6.09145
133
root -18.5283 15.7297 -0.899215 -156.769 -73.516 211.532
lowerback 10.4158 2.30264 -3.83895
upperback 3.33055 2.51383 0.136101
thorax -2.537 1.18619 1.9872
lowerneck -6.58053 7.12648 3.48797
upperneck -13.974 7.76062 -15.4392
head -2.21834 4.00879 -5.22675
rclavicle -7.55382e-014 -3.81667e-014
rhumerus 18.5191 27.0183 -92.987
rradius 27.6646
rwrist -1.65854
rhand -16.7526 5.06273
rfingers 7.12502
rthumb 9.47409 -24.7043
lclavicle -7.55382e-014 -3.81667e-014
lhumerus 31.776 14.003 114.099
lradius 12.1633
lwrist -40.851
lhand -14.5742 33.6279
lfingers 7.12502
lthumb 11.5754 63.2882
rfemur -74.5092 4.58102 26.553
rtibia 33.6007
rfoot -7.13856 -6.45949
rtoes -13.0624
lfemur -86.673 15.1568 -18.0025
ltibia 56.7312
lfoot -9.96783 -1.85536
ltoes -4.13677
134
root -18.5203 15.6701 -0.87247 -156.475 -73.2102 212.151
lowerback 10.4843 2.40114 -3.90551
upperback 3.20449 2.63534 0.128906
thorax -2.71602 1.25269 1.996
lowerneck -6.16461 7.10709 3.58274
upperneck -14.7851 7.5974 -15.7349
head -2.51995 3.96685 -5.37933
rclavicle -7.23576e-014 -2.98177e-014
rhumerus 19.2785 26.9336 -92.8971
rradius 27.6599
rwrist -1.54926
rhand -16.9485 5.60996
rfingers 7.12502
rthumb 9.285 -24.1656
lclavicle -7.23576e-014 -2.98177e-014
lhumerus 32.6179 13.5508 114.167
lradius 12.3638
lwrist -40.8022
lhand -14.3202 33.6397
lfingers 7.12502
lthumb 11.8203 63.2861
rfemur -75.9107 4.46705 27.2973
rtibia 34.3257
rfoot -7.70631 -5.71311
rtoes -12.8343
lfemur -88.1173 15.3558 -18.0678
ltibia 57.5029
lfoot -10.7799 -1.3647
ltoes -6.57923
135
root -18.5162 15.6276 -0.85198 -156.402 -73.0018 212.676
lowerback 10.8298 2.41535 -4.02865
upperback 3.20736 2.61994 0.111843
thorax -2.90623 1.24636 2.03746
lowerneck -5.99104 7.16613 3.86396
upperneck -15.4042 7.55322 -16.1013
head -2.70145 3.96244 -5.5675
rclavicle 3.26007e-014 5.04913e-014
rhumerus 20.1462 27.0507 -92.9131
rradius 27.9057
rwrist -1.16221
rhand -16.8151 4.90328
rfingers 7.12502
rthumb 9.41375 -24.8665
lclavicle 3.26007e-014 5.04913e-014
lhumerus 33.6161 13.0547 113.951
lradius 12.5637
lwrist -40.5046
lhand -14.1299 33.817
lfingers 7.12502
lthumb 12.0039 63.4527
rfemur -76.8924 4.40173 27.7939
rtibia 34.9928
rfoot -8.2117 -5.25174
rtoes -12.3234
lfemur -89.1741 15.5384 -18.1376
ltibia 58.2329
lfoot -9.76331 -1.55658
ltoes -5.61518
136
root -18.5124 15.5928 -0.830792 -156.437 -72.7591 213.374
lowerback 10.9724 2.49623 -4.07353
upperback 3.37094 2.70762 0.121964
thorax -2.82232 1.28142 2.05967
lowerneck -6.55453 7.22393 3.74762
upperneck -15.575 7.59718 -16.1042
head -2.66129 3.9649 -5.53428
rclavicle -7.87187e-014 -3.85642e-014
rhumerus 21.4351 27.4658 -92.3212
rradius 28.0813
rwrist -1.29466
rhand -16.9407 4.75854
rfingers 7.12502
rthumb 9.29257 -25.0167
lclavicle -7.87187e-014 -3.85642e-014
lhumerus 35.0232 12.3797 113.99
lradius 12.6082
lwrist -40.3048
lhand -13.7517 34.18
lfingers 7.12502
lthumb 12.3685 63.7941
rfemur -77.922 4.49603 28.0854
rtibia 35.693
rfoot -8.66726 -4.8095
rtoes -10.5098
lfemur -90.27 15.7294 -18.0836
ltibia 58.9514
lfoot -10.0137 -1.24134
ltoes -7.94664
137
root -18.5077 15.5543 -0.807158 -156.288 -72.4179 213.865
lowerback 11.2322 2.58205 -4.12217
upperback 3.42579 2.79439 0.0638477
thorax -2.91272 1.32194 2.00613
lowerneck -6.81939 7.27268 3.58622
upperneck -15.9071 7.61832 -16.08
head -2.72427 3.97631 -5.50267
rclavicle -3.73715e-014 -4.41302e-014
rhumerus 22.5596 28.2165 -91.6098
rradius 28.3273
rwrist -1.73331
rhand -17.2888 4.69571
rfingers 7.12502
rthumb 8.95669 -25.0942
lclavicle -3.73715e-014 -4.41302e-014
lhumerus 36.2272 11.6892 113.699
lradius 12.4455
lwrist -39.8256
lhand -13.4659 34.367
lfingers 7.12502
lthumb 12.644 63.9643
rfemur -79.0042 4.49558 28.6811
rtibia 36.4569
rfoot -9.11982 -4.14206
rtoes -10.1357
lfemur -91.3289 15.9108 -18.002
ltibia 59.6875
lfoot -9.533 -1.26103
ltoes -3.79399
138
root -18.5032 15.5042 -0.789608 -155.762 -72.1149 213.896
lowerback 11.6048 2.63874 -4.3883
upperback 3.37691 2.81314 -0.0129173
thorax -3.1773 1.33562 2.05765
lowerneck -6.61865 7.26944 3.69729
upperneck -16.4877 7.50546 -16.3045
head -2.92229 3.94152 -5.62204
rclavicle -4.6118e-014 -7.11649e-014
rhumerus 23.4156 28.7418 -91.2703
rradius 28.5013
rwrist -1.89979
rhand -17.3558 4.61799
rfingers 7.12502
rthumb 8.89201 -25.1746
lclavicle -4.6118e-014 -7.11649e-014
lhumerus 37.5922 11.5995 113.752
lradius 11.6457
lwrist -39.9985
lhand -13.7647 34.3406
lfingers 7.12502
lthumb 12.356 63.9555
rfemur -80.0712 4.3952 29.323
rtibia 37.2579
rfoot -9.59206 -3.6035
rtoes -11.1218
lfemur -92.4159 16.1511 -18.3042
ltibia 60.4577
lfoot -10.0354 -1.13861
ltoes -3.8919
